<svg version="1.1" id="Layer_1" xmlns="http://www.w3.org/2000/svg" xmlns:xlink="http://www.w3.org/1999/xlink" x="0px" y="0px"
	 width="100%" viewBox="450 340 680 210" enable-background="new 0 0 1600 896" xml:space="preserve">


<path fill="#349BED" opacity="1.000000" stroke="none" 
	d="
M541.171509,532.838745 
	C525.634888,517.295959 510.359039,501.999756 495.055603,486.731171 
	C485.871552,477.567993 485.950470,466.956787 495.268860,457.973236 
	C498.857086,454.514038 502.376678,450.981934 505.872528,447.428894 
	C513.695923,439.477539 523.891968,439.333954 531.870483,447.244263 
	C542.746155,458.026917 553.569214,468.863220 564.352417,479.738342 
	C572.272827,487.726257 578.018005,487.528656 585.864075,479.494843 
	C598.765198,466.285065 611.910400,453.313629 624.965210,440.254242 
	C625.412354,439.806885 625.994141,439.494049 626.403748,439.197662 
	C626.938293,439.344391 627.323730,439.344086 627.562561,439.531006 
	C640.837952,449.918701 640.823914,449.907501 629.128235,461.644104 
	C617.271118,473.542786 605.555908,485.585449 593.569031,497.351593 
	C582.315491,508.397949 568.000366,508.288483 556.737244,497.273560 
	C545.549805,486.332611 534.394958,475.355377 523.404846,464.217316 
	C520.412292,461.184448 518.358398,460.854614 515.358276,464.212830 
	C506.967072,473.605591 504.991486,471.335144 515.510559,481.676056 
	C530.110168,496.028442 544.378418,510.717499 558.919434,525.130310 
	C561.264282,527.454407 561.488525,529.139282 558.991638,531.211609 
	C558.481140,531.635315 558.033386,532.136658 557.571106,532.616089 
	C549.625366,540.855957 549.625854,540.856445 541.171509,532.838745 
z"/>
<path fill="#349BED" opacity="1.000000" stroke="none" 
	d="
M592.853699,399.398895 
	C592.853699,399.398895 592.947205,399.758942 593.179565,400.182129 
	C598.876465,406.140564 604.341125,411.675781 609.805725,417.210999 
	C609.805725,417.210999 609.816284,417.069305 609.841614,417.538086 
	C613.152039,426.644928 612.070496,434.269806 604.923706,440.699524 
	C601.337708,443.925720 598.062622,447.494873 594.584412,450.844025 
	C586.456665,458.670105 576.419189,458.635559 568.499451,450.746613 
	C557.658569,439.947876 546.843506,429.123077 536.031982,418.294922 
	C528.653320,410.904968 523.387695,410.764557 515.956909,418.020050 
	C509.762604,424.068298 503.728363,430.280212 497.586426,436.382629 
	C489.835785,444.083466 482.047791,451.746704 474.734558,458.972900 
	C470.067200,454.780884 465.917664,451.053986 460.943970,446.586853 
	C477.147339,430.688721 492.607330,415.115021 508.540436,400.041382 
	C517.831238,391.251709 532.729431,391.449158 542.285156,399.922516 
	C547.382568,404.442444 551.980713,409.521484 556.875549,414.274689 
	C564.128845,421.318237 571.445618,428.296509 578.735352,435.302551 
	C578.735352,435.302551 578.941650,435.091583 578.920898,435.496735 
	C580.369385,438.105072 581.850952,438.195496 583.626282,436.139191 
	C585.359131,434.132080 587.291809,432.298309 589.121338,430.373840 
	C593.697510,425.560059 593.739807,425.511169 589.184998,420.933624 
	C579.005981,410.703918 568.830505,400.469604 558.548218,390.344208 
	C552.078674,383.973358 545.418274,377.796265 538.710876,371.405975 
	C542.842529,366.785706 546.123840,363.116272 549.405151,359.446869 
	C549.405151,359.446869 549.201233,358.995117 549.639893,359.136597 
	C551.585510,360.051300 553.278015,360.597534 554.560120,361.645844 
	C557.081543,363.707336 559.374878,366.047760 561.762573,368.272827 
	C561.762573,368.272797 561.906921,368.098938 561.950684,368.469910 
	C567.244080,373.989502 572.493774,379.138153 577.743408,384.286774 
	C577.743408,384.286774 577.909912,384.079163 577.944946,384.468750 
	C582.937927,389.705170 587.895813,394.552032 592.853699,399.398895 
z"/>
<path fill="#111111" opacity="1.000000" stroke="none" 
	d="
M683.974243,451.000000 
	C683.975037,431.214539 683.975037,411.929108 683.975037,392.300903 
	C689.737549,392.300903 695.116760,392.300903 700.972412,392.300903 
	C700.972412,406.935669 700.972412,421.448700 700.972412,436.401123 
	C717.062073,420.970825 735.720276,419.361908 751.817993,431.606506 
	C766.898987,443.077789 771.951538,464.917755 763.584961,482.470520 
	C755.324646,499.800690 736.827087,508.554657 718.266174,504.050873 
	C711.068359,502.304291 705.928528,497.860992 700.883423,490.961487 
	C700.883423,495.700745 700.883423,499.300537 700.883423,503.172913 
	C695.041443,503.172913 689.936157,503.172913 683.973511,503.172913 
	C683.973511,485.953339 683.973511,468.726685 683.974243,451.000000 
M722.955017,438.514008 
	C712.805237,439.719391 705.759949,445.039337 701.954956,454.524323 
	C697.129272,466.553711 702.495056,481.487701 713.629089,487.218597 
	C725.416138,493.285614 738.772156,489.819000 745.889893,478.498077 
	C751.255371,469.964172 751.567871,460.936310 746.928650,451.948242 
	C742.105347,442.603394 734.162170,438.371368 722.955017,438.514008 
z"/>
<path fill="#111111" opacity="1.000000" stroke="none" 
	d="
M1083.225708,503.645264 
	C1078.386353,503.778229 1073.781738,503.778229 1068.724121,503.778229 
	C1068.724121,500.300140 1068.724121,497.587616 1068.724121,493.974365 
	C1066.664185,495.694885 1065.327515,496.827148 1063.974243,497.939117 
	C1049.468628,509.858765 1027.055542,507.355225 1016.134949,492.199707 
	C1011.339661,485.544830 1011.361206,470.693726 1020.313782,462.829041 
	C1026.789307,457.140411 1034.492798,455.327667 1042.550537,455.193237 
	C1050.932495,455.053436 1059.332275,455.989716 1067.751587,456.456970 
	C1068.933228,446.173492 1063.786621,439.404694 1053.394653,438.112549 
	C1043.709351,436.908264 1034.957520,439.293274 1026.746216,445.778046 
	C1023.506714,442.156128 1020.375977,438.655823 1017.252319,435.163452 
	C1030.288940,424.606750 1045.081665,421.733368 1060.984985,424.563293 
	C1076.268921,427.283051 1084.438354,437.082703 1084.676025,452.654175 
	C1084.922607,468.794830 1084.722412,484.942352 1084.837524,501.542053 
	C1084.458374,502.502228 1083.959473,503.007263 1083.225708,503.645264 
M1068.429932,470.693115 
	C1067.436279,469.876251 1066.531738,468.522125 1065.432983,468.340179 
	C1061.680664,467.718903 1057.842896,467.089630 1054.069824,467.243896 
	C1048.652100,467.465424 1043.155884,467.912811 1037.893799,469.130463 
	C1033.558960,470.133545 1031.017090,473.660614 1030.610352,478.229950 
	C1030.217407,482.642853 1031.420776,486.605255 1035.489014,488.908356 
	C1043.154053,493.247650 1051.082275,493.177582 1058.808350,489.179443 
	C1065.817993,485.552032 1069.075439,479.583618 1068.429932,470.693115 
z"/>
<path fill="#111111" opacity="1.000000" stroke="none" 
	d="
M944.940796,426.526276 
	C951.659180,425.449738 958.239685,423.728302 964.752747,423.954224 
	C983.053894,424.589081 997.323792,437.998993 999.831909,456.188965 
	C1000.439575,460.596130 1000.388855,465.094086 1000.679810,470.239563 
	C979.599426,470.239563 959.058472,470.239563 938.495117,470.239563 
	C939.489746,489.795441 968.118042,498.980957 985.262695,481.506775 
	C988.591492,484.472473 991.921570,487.439301 995.204285,490.363922 
	C982.768372,506.356171 956.377502,509.971680 938.714417,498.457001 
	C921.177612,487.024597 915.351257,463.702240 925.273804,445.081909 
	C929.322571,437.484253 935.137329,431.781738 942.904053,427.536346 
	C943.646362,427.094757 944.209290,426.932526 944.940796,426.526276 
M977.332092,458.136261 
	C979.415588,458.136261 981.499084,458.136261 983.634827,458.136261 
	C982.463379,445.814301 973.151489,437.472168 961.466980,437.670837 
	C948.846802,437.885406 939.260559,446.296539 938.566406,458.131897 
	C951.180542,458.131897 963.775757,458.131897 977.332092,458.136261 
z"/>
<path fill="#111111" opacity="1.000000" stroke="none" 
	d="
M804.147095,407.008911 
	C804.146362,439.268707 804.146362,471.029999 804.146362,503.122467 
	C798.462891,503.122467 793.233276,503.122467 787.609863,503.122467 
	C787.609863,466.177277 787.609863,429.338348 787.609863,392.224670 
	C792.964172,392.224670 798.217224,392.224670 804.147827,392.224670 
	C804.147827,397.010742 804.147827,401.760559 804.147095,407.008911 
z"/>
<path fill="#111111" opacity="1.000000" stroke="none" 
	d="
M1124.863037,502.894043 
	C1119.444702,503.199097 1114.327637,503.199097 1108.833496,503.199097 
	C1108.833496,477.205444 1108.833496,451.477386 1108.833496,425.515747 
	C1114.262207,425.515747 1119.532471,425.515747 1125.095093,425.515747 
	C1125.262695,426.309235 1125.628784,427.234436 1125.628784,428.159729 
	C1125.631104,451.652893 1125.601440,475.146057 1125.548828,498.639191 
	C1125.545898,499.956085 1125.298218,501.272430 1124.863037,502.894043 
z"/>

<path fill="#111111" opacity="1.000000" stroke="none" 
	d="
M1117.771973,390.551880 
	C1124.681763,392.006378 1128.130371,395.650269 1128.102905,401.102539 
	C1128.076294,406.367523 1124.062134,411.072723 1118.895508,411.894897 
	C1113.470459,412.758209 1108.850830,410.002869 1106.732056,404.639954 
	C1104.091431,397.955719 1109.008301,391.431305 1117.771973,390.551880 
z"/>






<path fill="#111111" opacity="1.000000" stroke="none" 
	d="
M829.367798,472.584167 
	C829.348572,456.672638 829.348572,441.223267 829.348572,425.497864 
	C835.197693,425.497864 840.435059,425.497864 846.122192,425.497864 
	C846.215759,427.061432 846.390808,428.654877 846.393921,430.248688 
	C846.419556,443.237000 846.359924,456.225739 846.431396,469.213715 
	C846.502991,482.231537 852.454529,489.554779 863.061218,489.879974 
	C875.363220,490.257111 884.417908,482.095215 884.836548,469.473419 
	C885.261475,456.665466 885.012024,443.835144 885.056213,431.014618 
	C885.061951,429.355499 885.057007,427.696320 885.057007,425.662231 
	C890.635803,425.662231 896.017273,425.662231 901.746521,425.662231 
	C901.746521,451.276093 901.746521,476.962067 901.746521,503.019165 
	C896.481018,503.019165 891.447571,503.019165 886.042847,503.019165 
	C886.042847,499.184174 886.042847,495.606598 886.042847,490.922607 
	C883.642700,493.608948 882.066162,495.629791 880.232971,497.382233 
	C871.006531,506.202118 860.033020,506.943207 848.609802,503.339386 
	C837.180298,499.733582 832.066528,490.675629 830.043762,479.501465 
	C829.659668,477.379669 829.597656,475.199493 829.367798,472.584167 
z"/>









</svg>